<svg width="89" height="83" viewBox="0 0 89 83" fill="none" xmlns="http://www.w3.org/2000/svg">
<path d="M29 82.5H12C10.8954 82.5 10 81.6046 10 80.5V43.5C10 42.3954 9.10457 41.5 8 41.5H2.32893C0.481467 41.5 -0.378218 39.2094 1.01305 37.9939L43.1841 1.14967C43.9378 0.491183 45.0622 0.491182 45.8159 1.14967L87.987 37.9939C89.3782 39.2094 88.5185 41.5 86.6711 41.5H80C78.8954 41.5 78 42.3954 78 43.5V80.5C78 81.6046 77.1046 82.5 76 82.5H58.5C57.3954 82.5 56.5 81.6046 56.5 80.5V52C56.5 50.8954 55.6046 50 54.5 50H33C31.8954 50 31 50.8954 31 52V80.5C31 81.6046 30.1046 82.5 29 82.5Z" fill="#9730FF"/>
</svg>
