<svg width="44" height="44" viewBox="0 0 44 44" fill="none" xmlns="http://www.w3.org/2000/svg">
<path d="M19.1397 10.5593L18.0286 11.2008L14.8185 5.64151L15.9296 5L19.1397 10.5593ZM5.18945 11.2008L6.30055 10.5593L9.51066 16.1199L8.39957 16.7614L5.18945 11.2008ZM35.1903 16.7614L34.0792 16.1199L37.2893 10.5593L38.4004 11.2008L35.1903 16.7614ZM27.659 5L28.7713 5.64151L25.5612 11.2008L24.4501 10.5593L27.659 5ZM24.4514 33.4407L25.5625 32.7992L28.7726 38.3585L27.6615 39L24.4514 33.4407ZM38.4017 32.7992L37.2906 33.4407L34.0805 27.8801L35.1916 27.2386L38.4017 32.7992ZM8.40085 27.2386L9.51194 27.8801L6.30183 33.4407L5.19074 32.7992L8.40085 27.2386ZM15.9322 39L14.8198 38.3585L18.0299 32.7992L19.141 33.4407L15.9309 39H15.9322Z" fill="black" fill-opacity="0.5"/>
<path d="M18.9503 22.6413L16.1109 27.5591L18.9503 32.4782H24.6302L27.4695 27.5591L24.6302 22.6413H18.9503ZM18.9503 21.3582H24.6302L27.4695 16.4404L24.6302 11.5213H18.9503L16.1109 16.4404L18.9503 21.3582ZM14.9986 15.7989L18.21 10.2383H25.3705L28.5806 15.7989H35.0008L38.5805 21.9998L35.0008 28.2006H28.5806L25.3705 33.7612H18.2112L15.0011 28.2006H8.58091L5 21.9998L8.57962 15.7989H14.9986ZM34.2592 26.9176L37.0998 21.9998L34.2592 17.0819H28.5806L25.7426 21.9998L28.5819 26.9176H34.2592ZM14.9998 26.9176L17.8392 21.9998L14.9998 17.0819H9.31993L6.4806 21.9998L9.32121 26.9176H14.9998Z" fill="black"/>
</svg>
