<svg width="36" height="36" viewBox="0 0 36 36" fill="none" xmlns="http://www.w3.org/2000/svg">
<rect width="36" height="36" rx="7" fill="#323234"/>
<path d="M9.099 22L11.457 15.295H12.771L15.129 22H13.995L13.482 20.497H10.755L10.233 22H9.099ZM11.061 19.552H13.158L11.97 16.042H12.267L11.061 19.552ZM15.9244 22V15.295H18.7504C19.1704 15.295 19.5334 15.37 19.8394 15.52C20.1454 15.664 20.3794 15.874 20.5414 16.15C20.7034 16.42 20.7844 16.741 20.7844 17.113C20.7844 17.437 20.7004 17.734 20.5324 18.004C20.3704 18.268 20.1154 18.478 19.7674 18.634V18.184C20.0734 18.304 20.3224 18.457 20.5144 18.643C20.7064 18.823 20.8444 19.027 20.9284 19.255C21.0184 19.483 21.0634 19.723 21.0634 19.975C21.0634 20.605 20.8564 21.1 20.4424 21.46C20.0344 21.82 19.4734 22 18.7594 22H15.9244ZM16.9864 21.055H18.8404C19.1944 21.055 19.4764 20.959 19.6864 20.767C19.8964 20.569 20.0014 20.308 20.0014 19.984C20.0014 19.654 19.8964 19.393 19.6864 19.201C19.4764 19.003 19.1944 18.904 18.8404 18.904H16.9864V21.055ZM16.9864 17.968H18.7774C19.0654 17.968 19.2964 17.887 19.4704 17.725C19.6444 17.557 19.7314 17.338 19.7314 17.068C19.7314 16.798 19.6444 16.588 19.4704 16.438C19.2964 16.288 19.0654 16.213 18.7774 16.213H16.9864V17.968ZM25.2789 22.108C24.8049 22.108 24.3639 22.021 23.9559 21.847C23.5539 21.673 23.2029 21.433 22.9029 21.127C22.6089 20.815 22.3779 20.449 22.2099 20.029C22.0419 19.609 21.9579 19.147 21.9579 18.643C21.9579 18.145 22.0389 17.686 22.2009 17.266C22.3689 16.84 22.6029 16.474 22.9029 16.168C23.2029 15.856 23.5539 15.616 23.9559 15.448C24.3579 15.274 24.7989 15.187 25.2789 15.187C25.7529 15.187 26.1759 15.268 26.5479 15.43C26.9259 15.592 27.2439 15.805 27.5019 16.069C27.7599 16.327 27.9459 16.609 28.0599 16.915L27.1059 17.365C26.9619 17.005 26.7309 16.714 26.4129 16.492C26.1009 16.264 25.7229 16.15 25.2789 16.15C24.8349 16.15 24.4419 16.255 24.0999 16.465C23.7579 16.675 23.4909 16.966 23.2989 17.338C23.1129 17.71 23.0199 18.145 23.0199 18.643C23.0199 19.141 23.1129 19.579 23.2989 19.957C23.4909 20.329 23.7579 20.62 24.0999 20.83C24.4419 21.034 24.8349 21.136 25.2789 21.136C25.7229 21.136 26.1009 21.025 26.4129 20.803C26.7309 20.581 26.9619 20.29 27.1059 19.93L28.0599 20.38C27.9459 20.68 27.7599 20.962 27.5019 21.226C27.2439 21.49 26.9259 21.703 26.5479 21.865C26.1759 22.027 25.7529 22.108 25.2789 22.108Z" fill="white" fill-opacity="0.7"/>
</svg>
