<svg width="36" height="36" viewBox="0 0 36 36" fill="none" xmlns="http://www.w3.org/2000/svg">
<rect width="36" height="36" rx="7" fill="#323234"/>
<path d="M11.099 16L13.457 9.295H14.771L17.129 16H15.995L15.482 14.497H12.755L12.233 16H11.099ZM13.061 13.552H15.158L13.97 10.042H14.267L13.061 13.552ZM17.9244 16V9.295H20.7504C21.1704 9.295 21.5334 9.37 21.8394 9.52C22.1454 9.664 22.3794 9.874 22.5414 10.15C22.7034 10.42 22.7844 10.741 22.7844 11.113C22.7844 11.437 22.7004 11.734 22.5324 12.004C22.3704 12.268 22.1154 12.478 21.7674 12.634V12.184C22.0734 12.304 22.3224 12.457 22.5144 12.643C22.7064 12.823 22.8444 13.027 22.9284 13.255C23.0184 13.483 23.0634 13.723 23.0634 13.975C23.0634 14.605 22.8564 15.1 22.4424 15.46C22.0344 15.82 21.4734 16 20.7594 16H17.9244ZM18.9864 15.055H20.8404C21.1944 15.055 21.4764 14.959 21.6864 14.767C21.8964 14.569 22.0014 14.308 22.0014 13.984C22.0014 13.654 21.8964 13.393 21.6864 13.201C21.4764 13.003 21.1944 12.904 20.8404 12.904H18.9864V15.055ZM18.9864 11.968H20.7774C21.0654 11.968 21.2964 11.887 21.4704 11.725C21.6444 11.557 21.7314 11.338 21.7314 11.068C21.7314 10.798 21.6444 10.588 21.4704 10.438C21.2964 10.288 21.0654 10.213 20.7774 10.213H18.9864V11.968Z" fill="white"/>
<path d="M14.816 27.108C14.342 27.108 13.901 27.021 13.493 26.847C13.091 26.673 12.74 26.433 12.44 26.127C12.146 25.815 11.915 25.449 11.747 25.029C11.579 24.609 11.495 24.147 11.495 23.643C11.495 23.145 11.576 22.686 11.738 22.266C11.906 21.84 12.14 21.474 12.44 21.168C12.74 20.856 13.091 20.616 13.493 20.448C13.895 20.274 14.336 20.187 14.816 20.187C15.29 20.187 15.713 20.268 16.085 20.43C16.463 20.592 16.781 20.805 17.039 21.069C17.297 21.327 17.483 21.609 17.597 21.915L16.643 22.365C16.499 22.005 16.268 21.714 15.95 21.492C15.638 21.264 15.26 21.15 14.816 21.15C14.372 21.15 13.979 21.255 13.637 21.465C13.295 21.675 13.028 21.966 12.836 22.338C12.65 22.71 12.557 23.145 12.557 23.643C12.557 24.141 12.65 24.579 12.836 24.957C13.028 25.329 13.295 25.62 13.637 25.83C13.979 26.034 14.372 26.136 14.816 26.136C15.26 26.136 15.638 26.025 15.95 25.803C16.268 25.581 16.499 25.29 16.643 24.93L17.597 25.38C17.483 25.68 17.297 25.962 17.039 26.226C16.781 26.49 16.463 26.703 16.085 26.865C15.713 27.027 15.29 27.108 14.816 27.108Z" fill="white" fill-opacity="0.4"/>
</svg>
