<svg width="36" height="36" viewBox="0 0 36 36" fill="none" xmlns="http://www.w3.org/2000/svg">
<rect width="36" height="36" rx="7" fill="#323234"/>
<rect x="5" y="13" width="11" height="11" rx="3" fill="#9730FF"/>
<path d="M8.099 22L10.457 15.295H11.771L14.129 22H12.995L12.482 20.497H9.755L9.233 22H8.099ZM10.061 19.552H12.158L10.97 16.042H11.267L10.061 19.552ZM17.0844 22V15.295H19.9104C20.3304 15.295 20.6934 15.37 20.9994 15.52C21.3054 15.664 21.5394 15.874 21.7014 16.15C21.8634 16.42 21.9444 16.741 21.9444 17.113C21.9444 17.437 21.8604 17.734 21.6924 18.004C21.5304 18.268 21.2754 18.478 20.9274 18.634V18.184C21.2334 18.304 21.4824 18.457 21.6744 18.643C21.8664 18.823 22.0044 19.027 22.0884 19.255C22.1784 19.483 22.2234 19.723 22.2234 19.975C22.2234 20.605 22.0164 21.1 21.6024 21.46C21.1944 21.82 20.6334 22 19.9194 22H17.0844ZM18.1464 21.055H20.0004C20.3544 21.055 20.6364 20.959 20.8464 20.767C21.0564 20.569 21.1614 20.308 21.1614 19.984C21.1614 19.654 21.0564 19.393 20.8464 19.201C20.6364 19.003 20.3544 18.904 20.0004 18.904H18.1464V21.055ZM18.1464 17.968H19.9374C20.2254 17.968 20.4564 17.887 20.6304 17.725C20.8044 17.557 20.8914 17.338 20.8914 17.068C20.8914 16.798 20.8044 16.588 20.6304 16.438C20.4564 16.288 20.2254 16.213 19.9374 16.213H18.1464V17.968ZM28.5989 22.108C28.1249 22.108 27.6839 22.021 27.2759 21.847C26.8739 21.673 26.5229 21.433 26.2229 21.127C25.9289 20.815 25.6979 20.449 25.5299 20.029C25.3619 19.609 25.2779 19.147 25.2779 18.643C25.2779 18.145 25.3589 17.686 25.5209 17.266C25.6889 16.84 25.9229 16.474 26.2229 16.168C26.5229 15.856 26.8739 15.616 27.2759 15.448C27.6779 15.274 28.1189 15.187 28.5989 15.187C29.0729 15.187 29.4959 15.268 29.8679 15.43C30.2459 15.592 30.5639 15.805 30.8219 16.069C31.0799 16.327 31.2659 16.609 31.3799 16.915L30.4259 17.365C30.2819 17.005 30.0509 16.714 29.7329 16.492C29.4209 16.264 29.0429 16.15 28.5989 16.15C28.1549 16.15 27.7619 16.255 27.4199 16.465C27.0779 16.675 26.8109 16.966 26.6189 17.338C26.4329 17.71 26.3399 18.145 26.3399 18.643C26.3399 19.141 26.4329 19.579 26.6189 19.957C26.8109 20.329 27.0779 20.62 27.4199 20.83C27.7619 21.034 28.1549 21.136 28.5989 21.136C29.0429 21.136 29.4209 21.025 29.7329 20.803C30.0509 20.581 30.2819 20.29 30.4259 19.93L31.3799 20.38C31.2659 20.68 31.0799 20.962 30.8219 21.226C30.5639 21.49 30.2459 21.703 29.8679 21.865C29.4959 22.027 29.0729 22.108 28.5989 22.108Z" fill="white"/>
</svg>
