<svg width="36" height="36" viewBox="0 0 36 36" fill="none" xmlns="http://www.w3.org/2000/svg">
<rect width="36" height="36" rx="7" fill="#323234"/>
<path d="M10.088 21L12.184 15.04H13.352L15.448 21H14.44L13.984 19.664H11.56L11.096 21H10.088ZM11.832 18.824H13.696L12.64 15.704H12.904L11.832 18.824ZM16.1551 21V15.04H18.6671C19.0404 15.04 19.3631 15.1067 19.6351 15.24C19.9071 15.368 20.1151 15.5547 20.2591 15.8C20.4031 16.04 20.4751 16.3253 20.4751 16.656C20.4751 16.944 20.4004 17.208 20.2511 17.448C20.1071 17.6827 19.8804 17.8693 19.5711 18.008V17.608C19.8431 17.7147 20.0644 17.8507 20.2351 18.016C20.4057 18.176 20.5284 18.3573 20.6031 18.56C20.6831 18.7627 20.7231 18.976 20.7231 19.2C20.7231 19.76 20.5391 20.2 20.1711 20.52C19.8084 20.84 19.3097 21 18.6751 21H16.1551ZM17.0991 20.16H18.7471C19.0617 20.16 19.3124 20.0747 19.4991 19.904C19.6857 19.728 19.7791 19.496 19.7791 19.208C19.7791 18.9147 19.6857 18.6827 19.4991 18.512C19.3124 18.336 19.0617 18.248 18.7471 18.248H17.0991V20.16ZM17.0991 17.416H18.6911C18.9471 17.416 19.1524 17.344 19.3071 17.2C19.4617 17.0507 19.5391 16.856 19.5391 16.616C19.5391 16.376 19.4617 16.1893 19.3071 16.056C19.1524 15.9227 18.9471 15.856 18.6911 15.856H17.0991V17.416ZM24.4701 21.096C24.0488 21.096 23.6568 21.0187 23.2941 20.864C22.9368 20.7093 22.6248 20.496 22.3581 20.224C22.0968 19.9467 21.8915 19.6213 21.7421 19.248C21.5928 18.8747 21.5181 18.464 21.5181 18.016C21.5181 17.5733 21.5901 17.1653 21.7341 16.792C21.8835 16.4133 22.0915 16.088 22.3581 15.816C22.6248 15.5387 22.9368 15.3253 23.2941 15.176C23.6515 15.0213 24.0435 14.944 24.4701 14.944C24.8915 14.944 25.2675 15.016 25.5981 15.16C25.9341 15.304 26.2168 15.4933 26.4461 15.728C26.6755 15.9573 26.8408 16.208 26.9421 16.48L26.0941 16.88C25.9661 16.56 25.7608 16.3013 25.4781 16.104C25.2008 15.9013 24.8648 15.8 24.4701 15.8C24.0755 15.8 23.7261 15.8933 23.4221 16.08C23.1181 16.2667 22.8808 16.5253 22.7101 16.856C22.5448 17.1867 22.4621 17.5733 22.4621 18.016C22.4621 18.4587 22.5448 18.848 22.7101 19.184C22.8808 19.5147 23.1181 19.7733 23.4221 19.96C23.7261 20.1413 24.0755 20.232 24.4701 20.232C24.8648 20.232 25.2008 20.1333 25.4781 19.936C25.7608 19.7387 25.9661 19.48 26.0941 19.16L26.9421 19.56C26.8408 19.8267 26.6755 20.0773 26.4461 20.312C26.2168 20.5467 25.9341 20.736 25.5981 20.88C25.2675 21.024 24.8915 21.096 24.4701 21.096Z" fill="white" fill-opacity="0.1"/>
<path d="M11.077 21L12.911 15.785H13.933L15.767 21H14.885L14.486 19.831H12.365L11.959 21H11.077ZM12.603 19.096H14.234L13.31 16.366H13.541L12.603 19.096ZM16.3857 21V15.785H18.5837C18.9103 15.785 19.1927 15.8433 19.4307 15.96C19.6687 16.072 19.8507 16.2353 19.9767 16.45C20.1027 16.66 20.1657 16.9097 20.1657 17.199C20.1657 17.451 20.1003 17.682 19.9697 17.892C19.8437 18.0973 19.6453 18.2607 19.3747 18.382V18.032C19.6127 18.1253 19.8063 18.2443 19.9557 18.389C20.105 18.529 20.2123 18.6877 20.2777 18.865C20.3477 19.0423 20.3827 19.229 20.3827 19.425C20.3827 19.915 20.2217 20.3 19.8997 20.58C19.5823 20.86 19.146 21 18.5907 21H16.3857ZM17.2117 20.265H18.6537C18.929 20.265 19.1483 20.1903 19.3117 20.041C19.475 19.887 19.5567 19.684 19.5567 19.432C19.5567 19.1753 19.475 18.9723 19.3117 18.823C19.1483 18.669 18.929 18.592 18.6537 18.592H17.2117V20.265ZM17.2117 17.864H18.6047C18.8287 17.864 19.0083 17.801 19.1437 17.675C19.279 17.5443 19.3467 17.374 19.3467 17.164C19.3467 16.954 19.279 16.7907 19.1437 16.674C19.0083 16.5573 18.8287 16.499 18.6047 16.499H17.2117V17.864ZM23.6614 21.084C23.2927 21.084 22.9497 21.0163 22.6324 20.881C22.3197 20.7457 22.0467 20.559 21.8134 20.321C21.5847 20.0783 21.405 19.7937 21.2744 19.467C21.1437 19.1403 21.0784 18.781 21.0784 18.389C21.0784 18.0017 21.1414 17.6447 21.2674 17.318C21.398 16.9867 21.58 16.702 21.8134 16.464C22.0467 16.2213 22.3197 16.0347 22.6324 15.904C22.945 15.7687 23.288 15.701 23.6614 15.701C24.03 15.701 24.359 15.764 24.6484 15.89C24.9424 16.016 25.1897 16.1817 25.3904 16.387C25.591 16.5877 25.7357 16.807 25.8244 17.045L25.0824 17.395C24.9704 17.115 24.7907 16.8887 24.5434 16.716C24.3007 16.5387 24.0067 16.45 23.6614 16.45C23.316 16.45 23.0104 16.5317 22.7444 16.695C22.4784 16.8583 22.2707 17.0847 22.1214 17.374C21.9767 17.6633 21.9044 18.0017 21.9044 18.389C21.9044 18.7763 21.9767 19.117 22.1214 19.411C22.2707 19.7003 22.4784 19.9267 22.7444 20.09C23.0104 20.2487 23.316 20.328 23.6614 20.328C24.0067 20.328 24.3007 20.2417 24.5434 20.069C24.7907 19.8963 24.9704 19.67 25.0824 19.39L25.8244 19.74C25.7357 19.9733 25.591 20.1927 25.3904 20.398C25.1897 20.6033 24.9424 20.769 24.6484 20.895C24.359 21.021 24.03 21.084 23.6614 21.084Z" fill="white" fill-opacity="0.1"/>
<path d="M12.066 21L13.638 16.53H14.514L16.086 21H15.33L14.988 19.998H13.17L12.822 21H12.066ZM13.374 19.368H14.772L13.98 17.028H14.178L13.374 19.368ZM16.6163 21V16.53H18.5003C18.7803 16.53 19.0223 16.58 19.2263 16.68C19.4303 16.776 19.5863 16.916 19.6943 17.1C19.8023 17.28 19.8563 17.494 19.8563 17.742C19.8563 17.958 19.8003 18.156 19.6883 18.336C19.5803 18.512 19.4103 18.652 19.1783 18.756V18.456C19.3823 18.536 19.5483 18.638 19.6763 18.762C19.8043 18.882 19.8963 19.018 19.9523 19.17C20.0123 19.322 20.0423 19.482 20.0423 19.65C20.0423 20.07 19.9043 20.4 19.6283 20.64C19.3563 20.88 18.9823 21 18.5063 21H16.6163ZM17.3243 20.37H18.5603C18.7963 20.37 18.9843 20.306 19.1243 20.178C19.2643 20.046 19.3343 19.872 19.3343 19.656C19.3343 19.436 19.2643 19.262 19.1243 19.134C18.9843 19.002 18.7963 18.936 18.5603 18.936H17.3243V20.37ZM17.3243 18.312H18.5183C18.7103 18.312 18.8643 18.258 18.9803 18.15C19.0963 18.038 19.1543 17.892 19.1543 17.712C19.1543 17.532 19.0963 17.392 18.9803 17.292C18.8643 17.192 18.7103 17.142 18.5183 17.142H17.3243V18.312ZM22.8526 21.072C22.5366 21.072 22.2426 21.014 21.9706 20.898C21.7026 20.782 21.4686 20.622 21.2686 20.418C21.0726 20.21 20.9186 19.966 20.8066 19.686C20.6946 19.406 20.6386 19.098 20.6386 18.762C20.6386 18.43 20.6926 18.124 20.8006 17.844C20.9126 17.56 21.0686 17.316 21.2686 17.112C21.4686 16.904 21.7026 16.744 21.9706 16.632C22.2386 16.516 22.5326 16.458 22.8526 16.458C23.1686 16.458 23.4506 16.512 23.6986 16.62C23.9506 16.728 24.1626 16.87 24.3346 17.046C24.5066 17.218 24.6306 17.406 24.7066 17.61L24.0706 17.91C23.9746 17.67 23.8206 17.476 23.6086 17.328C23.4006 17.176 23.1486 17.1 22.8526 17.1C22.5566 17.1 22.2946 17.17 22.0666 17.31C21.8386 17.45 21.6606 17.644 21.5326 17.892C21.4086 18.14 21.3466 18.43 21.3466 18.762C21.3466 19.094 21.4086 19.386 21.5326 19.638C21.6606 19.886 21.8386 20.08 22.0666 20.22C22.2946 20.356 22.5566 20.424 22.8526 20.424C23.1486 20.424 23.4006 20.35 23.6086 20.202C23.8206 20.054 23.9746 19.86 24.0706 19.62L24.7066 19.92C24.6306 20.12 24.5066 20.308 24.3346 20.484C24.1626 20.66 23.9506 20.802 23.6986 20.91C23.4506 21.018 23.1686 21.072 22.8526 21.072Z" fill="white" fill-opacity="0.1"/>
<path d="M9.099 21L11.457 14.295H12.771L15.129 21H13.995L13.482 19.497H10.755L10.233 21H9.099ZM11.061 18.552H13.158L11.97 15.042H12.267L11.061 18.552ZM15.9244 21V14.295H18.7504C19.1704 14.295 19.5334 14.37 19.8394 14.52C20.1454 14.664 20.3794 14.874 20.5414 15.15C20.7034 15.42 20.7844 15.741 20.7844 16.113C20.7844 16.437 20.7004 16.734 20.5324 17.004C20.3704 17.268 20.1154 17.478 19.7674 17.634V17.184C20.0734 17.304 20.3224 17.457 20.5144 17.643C20.7064 17.823 20.8444 18.027 20.9284 18.255C21.0184 18.483 21.0634 18.723 21.0634 18.975C21.0634 19.605 20.8564 20.1 20.4424 20.46C20.0344 20.82 19.4734 21 18.7594 21H15.9244ZM16.9864 20.055H18.8404C19.1944 20.055 19.4764 19.959 19.6864 19.767C19.8964 19.569 20.0014 19.308 20.0014 18.984C20.0014 18.654 19.8964 18.393 19.6864 18.201C19.4764 18.003 19.1944 17.904 18.8404 17.904H16.9864V20.055ZM16.9864 16.968H18.7774C19.0654 16.968 19.2964 16.887 19.4704 16.725C19.6444 16.557 19.7314 16.338 19.7314 16.068C19.7314 15.798 19.6444 15.588 19.4704 15.438C19.2964 15.288 19.0654 15.213 18.7774 15.213H16.9864V16.968ZM25.2789 21.108C24.8049 21.108 24.3639 21.021 23.9559 20.847C23.5539 20.673 23.2029 20.433 22.9029 20.127C22.6089 19.815 22.3779 19.449 22.2099 19.029C22.0419 18.609 21.9579 18.147 21.9579 17.643C21.9579 17.145 22.0389 16.686 22.2009 16.266C22.3689 15.84 22.6029 15.474 22.9029 15.168C23.2029 14.856 23.5539 14.616 23.9559 14.448C24.3579 14.274 24.7989 14.187 25.2789 14.187C25.7529 14.187 26.1759 14.268 26.5479 14.43C26.9259 14.592 27.2439 14.805 27.5019 15.069C27.7599 15.327 27.9459 15.609 28.0599 15.915L27.1059 16.365C26.9619 16.005 26.7309 15.714 26.4129 15.492C26.1009 15.264 25.7229 15.15 25.2789 15.15C24.8349 15.15 24.4419 15.255 24.0999 15.465C23.7579 15.675 23.4909 15.966 23.2989 16.338C23.1129 16.71 23.0199 17.145 23.0199 17.643C23.0199 18.141 23.1129 18.579 23.2989 18.957C23.4909 19.329 23.7579 19.62 24.0999 19.83C24.4419 20.034 24.8349 20.136 25.2789 20.136C25.7229 20.136 26.1009 20.025 26.4129 19.803C26.7309 19.581 26.9619 19.29 27.1059 18.93L28.0599 19.38C27.9459 19.68 27.7599 19.962 27.5019 20.226C27.2439 20.49 26.9259 20.703 26.5479 20.865C26.1759 21.027 25.7529 21.108 25.2789 21.108Z" fill="white"/>
</svg>
