<svg width="36" height="36" viewBox="0 0 36 36" fill="none" xmlns="http://www.w3.org/2000/svg">
<rect width="36" height="36" rx="7" fill="#323234"/>
<path d="M11.3676 16L13.7256 9.295H15.0396L17.3976 16H16.2636L15.7506 14.497H13.0236L12.5016 16H11.3676ZM13.3296 13.552H15.4266L14.2386 10.042H14.5356L13.3296 13.552ZM18.193 16V9.295H21.019C21.439 9.295 21.802 9.37 22.108 9.52C22.414 9.664 22.648 9.874 22.81 10.15C22.972 10.42 23.053 10.741 23.053 11.113C23.053 11.437 22.969 11.734 22.801 12.004C22.639 12.268 22.384 12.478 22.036 12.634V12.184C22.342 12.304 22.591 12.457 22.783 12.643C22.975 12.823 23.113 13.027 23.197 13.255C23.287 13.483 23.332 13.723 23.332 13.975C23.332 14.605 23.125 15.1 22.711 15.46C22.303 15.82 21.742 16 21.028 16H18.193ZM19.255 15.055H21.109C21.463 15.055 21.745 14.959 21.955 14.767C22.165 14.569 22.27 14.308 22.27 13.984C22.27 13.654 22.165 13.393 21.955 13.201C21.745 13.003 21.463 12.904 21.109 12.904H19.255V15.055ZM19.255 11.968H21.046C21.334 11.968 21.565 11.887 21.739 11.725C21.913 11.557 22 11.338 22 11.068C22 10.798 21.913 10.588 21.739 10.438C21.565 10.288 21.334 10.213 21.046 10.213H19.255V11.968Z" fill="#00FF0A"/>
<path d="M17.818 27.108C17.344 27.108 16.903 27.021 16.495 26.847C16.093 26.673 15.742 26.433 15.442 26.127C15.148 25.815 14.917 25.449 14.749 25.029C14.581 24.609 14.497 24.147 14.497 23.643C14.497 23.145 14.578 22.686 14.74 22.266C14.908 21.84 15.142 21.474 15.442 21.168C15.742 20.856 16.093 20.616 16.495 20.448C16.897 20.274 17.338 20.187 17.818 20.187C18.292 20.187 18.715 20.268 19.087 20.43C19.465 20.592 19.783 20.805 20.041 21.069C20.299 21.327 20.485 21.609 20.599 21.915L19.645 22.365C19.501 22.005 19.27 21.714 18.952 21.492C18.64 21.264 18.262 21.15 17.818 21.15C17.374 21.15 16.981 21.255 16.639 21.465C16.297 21.675 16.03 21.966 15.838 22.338C15.652 22.71 15.559 23.145 15.559 23.643C15.559 24.141 15.652 24.579 15.838 24.957C16.03 25.329 16.297 25.62 16.639 25.83C16.981 26.034 17.374 26.136 17.818 26.136C18.262 26.136 18.64 26.025 18.952 25.803C19.27 25.581 19.501 25.29 19.645 24.93L20.599 25.38C20.485 25.68 20.299 25.962 20.041 26.226C19.783 26.49 19.465 26.703 19.087 26.865C18.715 27.027 18.292 27.108 17.818 27.108Z" fill="white"/>
</svg>
