<svg width="36" height="36" viewBox="0 0 36 36" fill="none" xmlns="http://www.w3.org/2000/svg">
<rect width="36" height="36" rx="7" fill="#323234"/>
<rect x="3" y="13" width="30" height="11" rx="3" fill="#D9D9D9"/>
<path d="M6.099 22L8.457 15.295H9.771L12.129 22H10.995L10.482 20.497H7.755L7.233 22H6.099ZM8.061 19.552H10.158L8.97 16.042H9.267L8.061 19.552ZM15.5344 22V15.295H18.3604C18.7804 15.295 19.1434 15.37 19.4494 15.52C19.7554 15.664 19.9894 15.874 20.1514 16.15C20.3134 16.42 20.3944 16.741 20.3944 17.113C20.3944 17.437 20.3104 17.734 20.1424 18.004C19.9804 18.268 19.7254 18.478 19.3774 18.634V18.184C19.6834 18.304 19.9324 18.457 20.1244 18.643C20.3164 18.823 20.4544 19.027 20.5384 19.255C20.6284 19.483 20.6734 19.723 20.6734 19.975C20.6734 20.605 20.4664 21.1 20.0524 21.46C19.6444 21.82 19.0834 22 18.3694 22H15.5344ZM16.5964 21.055H18.4504C18.8044 21.055 19.0864 20.959 19.2964 20.767C19.5064 20.569 19.6114 20.308 19.6114 19.984C19.6114 19.654 19.5064 19.393 19.2964 19.201C19.0864 19.003 18.8044 18.904 18.4504 18.904H16.5964V21.055ZM16.5964 17.968H18.3874C18.6754 17.968 18.9064 17.887 19.0804 17.725C19.2544 17.557 19.3414 17.338 19.3414 17.068C19.3414 16.798 19.2544 16.588 19.0804 16.438C18.9064 16.288 18.6754 16.213 18.3874 16.213H16.5964V17.968Z" fill="#282828"/>
<path d="M27.4989 22.108C27.0249 22.108 26.5839 22.021 26.1759 21.847C25.7739 21.673 25.4229 21.433 25.1229 21.127C24.8289 20.815 24.5979 20.449 24.4299 20.029C24.2619 19.609 24.1779 19.147 24.1779 18.643C24.1779 18.145 24.2589 17.686 24.4209 17.266C24.5889 16.84 24.8229 16.474 25.1229 16.168C25.4229 15.856 25.7739 15.616 26.1759 15.448C26.5779 15.274 27.0189 15.187 27.4989 15.187C27.9729 15.187 28.3959 15.268 28.7679 15.43C29.1459 15.592 29.4639 15.805 29.7219 16.069C29.9799 16.327 30.1659 16.609 30.2799 16.915L29.3259 17.365C29.1819 17.005 28.9509 16.714 28.6329 16.492C28.3209 16.264 27.9429 16.15 27.4989 16.15C27.0549 16.15 26.6619 16.255 26.3199 16.465C25.9779 16.675 25.7109 16.966 25.5189 17.338C25.3329 17.71 25.2399 18.145 25.2399 18.643C25.2399 19.141 25.3329 19.579 25.5189 19.957C25.7109 20.329 25.9779 20.62 26.3199 20.83C26.6619 21.034 27.0549 21.136 27.4989 21.136C27.9429 21.136 28.3209 21.025 28.6329 20.803C28.9509 20.581 29.1819 20.29 29.3259 19.93L30.2799 20.38C30.1659 20.68 29.9799 20.962 29.7219 21.226C29.4639 21.49 29.1459 21.703 28.7679 21.865C28.3959 22.027 27.9729 22.108 27.4989 22.108Z" fill="#AFAFAF"/>
</svg>
